<svg width="12" height="12" viewBox="0 0 12 12" fill="none" xmlns="http://www.w3.org/2000/svg">
    <path d="M6.98333 1.83333C6.98333 1.57254 6.87973 1.32242 6.69532 1.13801C6.51091 0.953602 6.2608 0.85 6 0.85C5.7392 0.85 5.48909 0.953601 5.30468 1.13801C5.12027 1.32242 5.01667 1.57254 5.01667 1.83333V5.01667H1.83333C1.57254 5.01667 1.32242 5.12027 1.13801 5.30468C0.953601 5.48909 0.85 5.7392 0.85 6C0.85 6.2608 0.953601 6.51091 1.13801 6.69532C1.32242 6.87973 1.57254 6.98333 1.83333 6.98333H5.01667V10.1667C5.01667 10.4275 5.12027 10.6776 5.30468 10.862C5.48909 11.0464 5.7392 11.15 6 11.15C6.2608 11.15 6.51091 11.0464 6.69532 10.862C6.87973 10.6776 6.98333 10.4275 6.98333 10.1667V6.98333H10.1667C10.4275 6.98333 10.6776 6.87973 10.862 6.69532C11.0464 6.51091 11.15 6.2608 11.15 6C11.15 5.7392 11.0464 5.48909 10.862 5.30468C10.6776 5.12027 10.4275 5.01667 10.1667 5.01667H6.98333V1.83333Z" fill="#16151B" stroke="#16151B" stroke-width="0.3"/>
</svg>
