<svg width="14" height="14" viewBox="0 0 14 14" fill="none" xmlns="http://www.w3.org/2000/svg">
    <path fill-rule="evenodd" clip-rule="evenodd" d="M4.21462 0.868211C4.09025 0.433141 4.41691 0 4.86941 0C5.09324 0 5.30277 0.109979 5.4299 0.294188L9.14365 5.67511L12.9091 5.85406C13.5198 5.88308 14 6.38664 14 6.998C14 7.63049 13.4873 8.14323 12.8548 8.14323H9.14365L5.42933 13.6973C5.30281 13.8864 5.09024 14 4.86266 14C4.41202 14 4.08538 13.5706 4.20568 13.1363L5.58882 8.14323L1.85735 8.14323L0.862604 10.183C0.786469 10.3391 0.627979 10.4381 0.454286 10.4381C0.203391 10.4381 0 10.2347 0 9.98385L0 3.73602C0 3.51238 0.178774 3.32978 0.402358 3.32503C0.560223 3.32168 0.706057 3.40904 0.777578 3.54982L1.85735 5.67511L5.58882 5.67511L4.21462 0.868211Z" fill="#505050"/>
</svg>
