<svg width="23" height="23" viewBox="0 0 23 23" fill="none" xmlns="http://www.w3.org/2000/svg">
    <path d="M21.7378 18.1195H7.0122V17.4183C7.0122 17.0326 6.69665 16.7171 6.31098 16.7171H4.90854C4.52287 16.7171 4.20732 17.0326 4.20732 17.4183V18.1195H0.70122C0.315549 18.1195 0 18.4351 0 18.8207V20.2232C0 20.6088 0.315549 20.9244 0.70122 20.9244H4.20732V21.6256C4.20732 22.0113 4.52287 22.3268 4.90854 22.3268H6.31098C6.69665 22.3268 7.0122 22.0113 7.0122 21.6256V20.9244H21.7378C22.1235 20.9244 22.439 20.6088 22.439 20.2232V18.8207C22.439 18.4351 22.1235 18.1195 21.7378 18.1195ZM21.7378 11.1073H18.2317V10.4061C18.2317 10.0204 17.9162 9.70488 17.5305 9.70488H16.128C15.7424 9.70488 15.4268 10.0204 15.4268 10.4061V11.1073H0.70122C0.315549 11.1073 0 11.4229 0 11.8085V13.211C0 13.5967 0.315549 13.9122 0.70122 13.9122H15.4268V14.6134C15.4268 14.9991 15.7424 15.3146 16.128 15.3146H17.5305C17.9162 15.3146 18.2317 14.9991 18.2317 14.6134V13.9122H21.7378C22.1235 13.9122 22.439 13.5967 22.439 13.211V11.8085C22.439 11.4229 22.1235 11.1073 21.7378 11.1073ZM21.7378 4.09513H12.622V3.39391C12.622 3.00824 12.3064 2.69269 11.9207 2.69269H10.5183C10.1326 2.69269 9.81707 3.00824 9.81707 3.39391V4.09513H0.70122C0.315549 4.09513 0 4.41068 0 4.79635V6.19879C0 6.58446 0.315549 6.90001 0.70122 6.90001H9.81707V7.60122C9.81707 7.9869 10.1326 8.30244 10.5183 8.30244H11.9207C12.3064 8.30244 12.622 7.9869 12.622 7.60122V6.90001H21.7378C22.1235 6.90001 22.439 6.58446 22.439 6.19879V4.79635C22.439 4.41068 22.1235 4.09513 21.7378 4.09513Z" fill="white"/>
</svg>
